<svg id="Слой_1" data-name="Слой 1" xmlns="http://www.w3.org/2000/svg" viewBox="0 0 395.75 143.93"><title>css</title><path d="M157.27,305.76c-6.62,3.31-19.88,6.62-36.86,6.62-39.35,0-69-24.85-69-70.61,0-43.7,29.61-73.32,72.9-73.32,17.39,0,28.37,3.73,33.13,6.22l-4.35,14.7c-6.83-3.31-16.56-5.8-28.16-5.8-32.72,0-54.47,20.92-54.47,57.57,0,34.17,19.68,56.13,53.64,56.13,11,0,22.16-2.28,29.41-5.8Z" transform="translate(-51.45 -168.45)"/><path d="M221.26,288.36a63.86,63.86,0,0,0,32.31,9.11c18.43,0,29.2-9.73,29.2-23.81,0-13.05-7.46-20.5-26.3-27.75-22.78-8.08-36.86-19.88-36.86-39.56,0-21.74,18-37.9,45.14-37.9,14.29,0,24.65,3.32,30.86,6.84l-5,14.7a55.68,55.68,0,0,0-26.51-6.63c-19,0-26.3,11.39-26.3,20.92,0,13.05,8.49,19.47,27.75,26.92,23.61,9.12,35.62,20.51,35.62,41,0,21.54-15.95,40.17-48.87,40.17-13.46,0-28.17-3.93-35.62-8.9Z" transform="translate(-51.45 -168.45)"/><path d="M367.26,288.36a63.86,63.86,0,0,0,32.31,9.11c18.43,0,29.2-9.73,29.2-23.81,0-13.05-7.46-20.5-26.3-27.75-22.78-8.08-36.87-19.88-36.87-39.56,0-21.74,18-37.9,45.15-37.9,14.29,0,24.64,3.32,30.86,6.84l-5,14.7a55.68,55.68,0,0,0-26.51-6.63c-19.05,0-26.3,11.39-26.3,20.92,0,13.05,8.49,19.47,27.75,26.92,23.61,9.12,35.62,20.51,35.62,41,0,21.54-15.95,40.17-48.88,40.17-13.46,0-28.16-3.93-35.61-8.9Z" transform="translate(-51.45 -168.45)"/></svg>