<svg id="Слой_1" data-name="Слой 1" xmlns="http://www.w3.org/2000/svg" viewBox="0 0 427.04 100.77"><defs><style>.cls-1{stroke:#000;stroke-miterlimit:10;stroke-width:3px;}</style></defs><title>html</title><path class="cls-1" d="M54.78,189.52v40.9h47.29v-40.9h12.77v97.77H102.07V241.45H54.78v45.84H42.16V189.52Z" transform="translate(-40.66 -188.02)"/><path class="cls-1" d="M180.12,200.25H150.39V189.52h72.38v10.73H192.89v87H180.12Z" transform="translate(-40.66 -188.02)"/><path class="cls-1" d="M346.81,244.35c-.73-13.64-1.6-30-1.45-42.21h-.44c-3.34,11.46-7.4,23.64-12.33,37.13l-17.26,47.44h-9.58l-15.81-46.57c-4.64-13.78-8.56-26.4-11.31-38h-.29c-.29,12.18-1,28.57-1.89,43.23l-2.61,41.92h-12l6.82-97.77h16.1l16.68,47.29c4.06,12,7.4,22.77,9.87,32.93h.43c2.47-9.87,5.95-20.6,10.3-32.93l17.41-47.29h16.1l6.09,97.77H349.27Z" transform="translate(-40.66 -188.02)"/><path class="cls-1" d="M411.8,189.52h12.62V276.7H466.2v10.59H411.8Z" transform="translate(-40.66 -188.02)"/></svg>