<svg id="Слой_1" data-name="Слой 1" xmlns="http://www.w3.org/2000/svg" viewBox="0 0 274.12 99.71"><title>css</title><path d="M148.47,253c-4.59,2.29-13.77,4.59-25.54,4.59-27.25,0-47.76-17.21-47.76-48.92,0-30.27,20.51-50.77,50.49-50.77,12.05,0,19.65,2.58,23,4.3l-3,10.18a45.35,45.35,0,0,0-19.51-4c-22.66,0-37.73,14.49-37.73,39.88,0,23.66,13.63,38.87,37.16,38.87,7.6,0,15.35-1.58,20.37-4Z" transform="translate(-75.17 -157.89)"/><path d="M192.79,240.94a44.1,44.1,0,0,0,22.38,6.31c12.77,0,20.22-6.73,20.22-16.49,0-9-5.16-14.2-18.21-19.23-15.78-5.59-25.54-13.77-25.54-27.39,0-15.06,12.48-26.25,31.27-26.25,9.9,0,17.08,2.29,21.38,4.73l-3.44,10.18a38.7,38.7,0,0,0-18.37-4.59c-13.19,0-18.21,7.89-18.21,14.49,0,9,5.88,13.49,19.22,18.65,16.35,6.31,24.67,14.2,24.67,28.4,0,14.92-11,27.83-33.85,27.83-9.33,0-19.51-2.72-24.68-6.17Z" transform="translate(-75.17 -157.89)"/><path d="M293.92,240.94a44.1,44.1,0,0,0,22.39,6.31c12.76,0,20.22-6.73,20.22-16.49,0-9-5.17-14.2-18.21-19.23-15.78-5.59-25.54-13.77-25.54-27.39,0-15.06,12.48-26.25,31.26-26.25,9.9,0,17.07,2.29,21.38,4.73L342,172.8a38.54,38.54,0,0,0-18.36-4.59c-13.19,0-18.2,7.89-18.2,14.49,0,9,5.88,13.49,19.22,18.65,16.35,6.31,24.67,14.2,24.67,28.4,0,14.92-11.05,27.83-33.85,27.83-9.33,0-19.51-2.72-24.68-6.17Z" transform="translate(-75.17 -157.89)"/></svg>