<svg id="Слой_1" data-name="Слой 1" xmlns="http://www.w3.org/2000/svg" viewBox="0 0 424.47 97.95"><title>html</title><path d="M12.64,158.77v41H60v-41H72.76v97.88H60V210.73H12.64v45.88H0V158.77Z" transform="translate(0 -158.77)"/><path d="M138.11,169.52H108.3V158.77h72.5v10.75H150.89v87.13H138.11Z" transform="translate(0 -158.77)"/><path d="M305,213.73c-.73-13.67-1.6-30.06-1.45-42.26h-.44c-3.34,11.47-7.4,23.67-12.34,37.17l-17.28,47.49h-9.59L248,209.46c-4.64-13.79-8.56-26.43-11.32-38h-.29c-.29,12.2-1,28.6-1.89,43.27l-2.62,42h-12l6.83-97.88h16.12l16.7,47.34c4.06,12.06,7.4,22.8,9.87,33h.44c2.47-9.88,6-20.62,10.31-33l17.42-47.34h16.12l6.1,97.88H307.43Z" transform="translate(0 -158.77)"/><path d="M370,158.77h12.64v87.29h41.82v10.6H370Z" transform="translate(0 -158.77)"/></svg>