<svg id="Слой_1" data-name="Слой 1" xmlns="http://www.w3.org/2000/svg" viewBox="0 0 345.34 234.65"><defs><style>.cls-1{stroke:#000;stroke-miterlimit:10;stroke-width:3px;}</style></defs><title>js</title><path class="cls-1" d="M141.78,123.45h29v150.1c0,59.58-29.29,77.88-67.9,77.88-10.65,0-23.63-2.33-30.95-5.32l4.32-23.63a69.12,69.12,0,0,0,24.3,4.33c26,0,41.27-11.65,41.27-55.59Z" transform="translate(-70.19 -118.29)"/><path class="cls-1" d="M285.56,312.49a102.59,102.59,0,0,0,51.92,14.65c29.62,0,46.93-15.64,46.93-38.28,0-21-12-33-42.27-44.6-36.61-13-59.24-31.95-59.24-63.56,0-34.95,29-60.91,72.55-60.91,23,0,39.61,5.32,49.59,11l-8,23.63a89.43,89.43,0,0,0-42.61-10.65c-30.62,0-42.26,18.31-42.26,33.62,0,21,13.64,31.28,44.59,43.26,38,14.65,57.25,33,57.25,65.9,0,34.62-25.63,64.57-78.55,64.57-21.63,0-45.26-6.32-57.24-14.31Z" transform="translate(-70.19 -118.29)"/></svg>