<svg id="Слой_1" data-name="Слой 1" xmlns="http://www.w3.org/2000/svg" viewBox="0 0 148.17 100.33"><title>js</title><path d="M168.42,159.2H181v65c0,25.79-12.68,33.72-29.4,33.72a41.08,41.08,0,0,1-13.41-2.3l1.92-10.24a30,30,0,0,0,10.52,1.88c11.24,0,17.87-5,17.87-24.08Z" transform="translate(-138.15 -157.58)"/><path d="M230.68,241.07a44.53,44.53,0,0,0,22.49,6.31c12.83,0,20.32-6.77,20.32-16.58,0-9.07-5.19-14.26-18.3-19.32-15.86-5.62-25.66-13.84-25.66-27.53,0-15.13,12.54-26.37,31.42-26.37,9.95,0,17.15,2.3,21.48,4.75L279,172.57A38.81,38.81,0,0,0,260.52,168c-13.26,0-18.31,7.93-18.31,14.56,0,9.08,5.91,13.55,19.32,18.74,16.43,6.34,24.79,14.27,24.79,28.54,0,15-11.1,28-34,28-9.37,0-19.6-2.74-24.79-6.2Z" transform="translate(-138.15 -157.58)"/></svg>